<svg width="1024" height="1024" viewBox="0 0 1024 1024" fill="none" xmlns="http://www.w3.org/2000/svg">
<rect width="1024" height="1024" fill="url(#paint0_linear_1066_583)"/>
<g opacity="0.5">
<g clip-path="url(#clip0_1066_583)">
<path d="M0 703H1024" stroke="#007AFF"/>
<path d="M0 512H1024" stroke="#007AFF"/>
<path d="M0 321H1024" stroke="#007AFF"/>
<path d="M703 1024V0" stroke="#007AFF"/>
<path d="M512 1024V0" stroke="#007AFF"/>
<path d="M321 1024V0" stroke="#007AFF"/>
<path d="M1024 1024L0 0" stroke="#007AFF"/>
<path d="M0 1024L1024 0" stroke="#007AFF"/>
<rect x="67" y="67" width="890" height="890" stroke="#007AFF"/>
<circle cx="512" cy="512" r="191" stroke="#007AFF"/>
<circle cx="512" cy="512" r="269" stroke="#007AFF"/>
<circle cx="512" cy="512" r="445" stroke="#007AFF"/>
</g>
<rect x="0.5" y="0.5" width="1023" height="1023" rx="227.5" stroke="#FF3B30"/>
</g>
<rect width="1024" height="1024" fill="#F8C73A"/>
<path d="M241.849 459.357L200.594 593H156.783L218.956 423.797H246.73L241.849 459.357ZM276.015 593L234.644 459.357L229.299 423.797H257.422L319.943 593H276.015ZM274.388 529.897V561.391H187.579V529.897H274.388ZM424.473 423.797H465.263V534.313C465.263 547.484 462.512 558.64 457.012 567.782C451.511 576.847 443.802 583.703 433.886 588.352C423.969 593 412.309 595.324 398.906 595.324C385.658 595.324 373.998 593 363.927 588.352C353.932 583.703 346.108 576.847 340.452 567.782C334.874 558.64 332.085 547.484 332.085 534.313V423.797H372.991V534.313C372.991 541.286 373.998 546.98 376.013 551.396C378.027 555.735 380.971 558.911 384.845 560.926C388.718 562.94 393.405 563.947 398.906 563.947C404.484 563.947 409.171 562.94 412.968 560.926C416.764 558.911 419.63 555.735 421.567 551.396C423.504 546.98 424.473 541.286 424.473 534.313V423.797ZM585.132 423.797H625.922V534.313C625.922 547.484 623.171 558.64 617.671 567.782C612.17 576.847 604.462 583.703 594.545 588.352C584.628 593 572.968 595.324 559.565 595.324C546.317 595.324 534.658 593 524.586 588.352C514.592 583.703 506.767 576.847 501.111 567.782C495.533 558.64 492.744 547.484 492.744 534.313V423.797H533.65V534.313C533.65 541.286 534.658 546.98 536.672 551.396C538.686 555.735 541.63 558.911 545.504 560.926C549.378 562.94 554.065 563.947 559.565 563.947C565.144 563.947 569.831 562.94 573.627 560.926C577.423 558.911 580.29 555.735 582.227 551.396C584.163 546.98 585.132 541.286 585.132 534.313V423.797ZM694.774 423.797V593H653.984V423.797H694.774ZM795.762 423.797L730.219 509.561L691.869 551.513L684.432 514.093L708.952 476.905L745.442 423.797H795.762ZM747.534 593L703.839 516.766L735.565 493.407L795.762 593H747.534ZM851.947 423.797V593H811.274V423.797H851.947Z" fill="white"/>
<defs>
<linearGradient id="paint0_linear_1066_583" x1="512" y1="0" x2="512" y2="1024" gradientUnits="userSpaceOnUse">
<stop stop-color="#313131"/>
<stop offset="1" stop-color="#141414"/>
</linearGradient>
<clipPath id="clip0_1066_583">
<rect width="1024" height="1024" rx="228" fill="white"/>
</clipPath>
</defs>
</svg>
